<svg width="24" height="24" fill="none" xmlns="http://www.w3.org/2000/svg"><path fill-rule="evenodd" clip-rule="evenodd" d="M0 2a2 2 0 012-2h20a2 2 0 012 2v20a2 2 0 01-2 2H2a2 2 0 01-2-2V2zm1.09 4.581a1 1 0 011-1h19.82a1 1 0 011 1v15.303a1 1 0 01-1 1H2.09a1 1 0 01-1-1V6.58zM20.728 9.21a.828.828 0 01-.818.838.828.828 0 01-.818-.838c0-.462.366-.837.818-.837.452 0 .818.375.818.837zm-8.454.838a.828.828 0 00.818-.838.828.828 0 00-.818-.837.828.828 0 00-.819.837c0 .463.367.838.819.838zm.818 4.186a.828.828 0 01-.818.837.828.828 0 01-.819-.837c0-.463.367-.838.819-.838.452 0 .818.375.818.838zm-4.636.837a.828.828 0 00.818-.837.828.828 0 00-.818-.838.828.828 0 00-.819.838c0 .462.367.837.819.837zm-3-.837a.828.828 0 01-.819.837.828.828 0 01-.818-.837c0-.463.366-.838.818-.838.452 0 .819.375.819.838zm14.454.837a.828.828 0 00.818-.837.828.828 0 00-.818-.838.828.828 0 00-.818.838c0 .462.366.837.818.837zm-3 4.186a.828.828 0 01-.818.837.828.828 0 01-.818-.837c0-.463.366-.837.818-.837.452 0 .818.374.818.837zm-8.454.837a.828.828 0 00.818-.837.828.828 0 00-.818-.837.828.828 0 00-.819.837c0 .462.367.837.819.837zm4.636-.837a.828.828 0 01-.818.837.828.828 0 01-.819-.837c0-.463.367-.837.819-.837.452 0 .818.374.818.837zm-8.455.837a.828.828 0 00.819-.837.828.828 0 00-.819-.837.828.828 0 00-.818.837c0 .462.366.837.818.837zM18 14.233c0 1.078-.855 1.953-1.91 1.953-1.053 0-1.908-.875-1.908-1.953 0-1.08.855-1.954 1.909-1.954S18 13.154 18 14.233zm-1.91-4.187a.828.828 0 00.82-.837.828.828 0 00-.82-.837.828.828 0 00-.817.837c0 .463.366.838.818.838zM9.274 9.21a.828.828 0 01-.818.838.828.828 0 01-.819-.838c0-.462.367-.837.819-.837.451 0 .818.375.818.837z" fill="#8C8C8C"/></svg>