<svg width="18" height="21" fill="none" xmlns="http://www.w3.org/2000/svg"><path fill-rule="evenodd" clip-rule="evenodd" d="M0 .588zm16.91.008c-1.035.455-2.64 1.039-4.076 1.039-2.134 0-3.148-.395-4.18-.796C7.833.52 7 .196 5.583.065 2.388-.232.003.587 0 .588h1.09l-.722.985c.032-.01.114-.036.24-.071a10.204 10.204 0 01.778-.183 14.255 14.255 0 014.092-.213c1.039.097 1.623.259 2.715.683l.097.038c1.608.625 2.626.854 4.544.854.377 0 .77-.033 1.174-.096.874-.135 1.786-.404 2.707-.767l.194-.078v9.021a8.33 8.33 0 01-.718.258c-1.122.348-2.49.56-4.107.56-1.569 0-2.72-.218-4.338-.719l-.372-.116H7.37c-.196-.062-.409-.13-.494-.155a18.902 18.902 0 00-.887-.254 8.468 8.468 0 00-2.043-.294c-1.143-.014-2.09.123-2.856.393-.417.147-.78.333-1.091.554v1.518l.044.005a.996.996 0 00-.044.115V21h1.09v-9.428c.588-.28 1.483-.502 2.843-.484 1.079.014 2.014.309 3.054.636 1.344.423 2.864.902 5.097.902 3.96 0 5.916-1.223 5.916-1.223V1.253c-.339.165-.705.33-1.09.487V.596zm.524-.242L18 .666V.065s-.211.118-.566.289zm-.525 10.408c.087-.037.17-.073.246-.109.142-.066.226-.112.25-.127l-.496.877v-.642zM1.091.588z" fill="#8C8C8C"/></svg>