<svg width="22" height="19" fill="none" xmlns="http://www.w3.org/2000/svg"><path fill-rule="evenodd" clip-rule="evenodd" d="M8.32 2.111L7.313 0h-5.74C.702 0 0 .71 0 1.583v15.834C0 18.29.703 19 1.571 19H20.43c.868 0 1.571-.71 1.571-1.583V3.695c0-.875-.703-1.584-1.571-1.584H8.32zm12.632 15.306a.533.533 0 01-.538.528H1.586a.533.533 0 01-.538-.528V6.86c0-.292.24-.528.538-.528h18.828c.297 0 .538.236.538.528v10.556zm0-12.139H1.048V1.584c0-.291.234-.528.523-.528h5.23l1.045 2.111h12.583c.289 0 .523.237.523.528v1.583z" fill="#fff"/></svg>