<svg width="26" height="25" fill="none" xmlns="http://www.w3.org/2000/svg"><path fill-rule="evenodd" clip-rule="evenodd" d="M19.403 0c-2.734 0-5.016 1.153-6.402 3.192C11.615 1.152 9.33 0 6.598 0 3.411 0 0 1.708 0 4.251v19.112a.541.541 0 00.84.455c.042-.028 4.25-2.809 7.642-2.809 2.198 0 3.502 1.162 3.988 3.554.003.017.013.03.017.046a.54.54 0 00.225.299c.023.015.046.03.073.04a.542.542 0 00.105.033c.02.004.036.014.056.016A.592.592 0 0013 25h.001l.054-.003c.02-.002.037-.012.056-.016.036-.009.071-.016.105-.032a.573.573 0 00.073-.041.485.485 0 00.137-.128.492.492 0 00.087-.171c.004-.016.014-.03.017-.046.486-2.392 1.79-3.554 3.988-3.554 3.393 0 7.6 2.78 7.642 2.809a.542.542 0 00.84-.455V4.25C26.001 1.708 22.59 0 19.403 0zM8.483 19.918c-2.792 0-5.929 1.614-7.4 2.471V4.251c0-1.653 2.63-3.159 5.516-3.159 2.61 0 4.739 1.199 5.86 3.294V21.76c-.894-1.215-2.236-1.843-3.976-1.843zm16.435 2.471c-1.47-.857-4.608-2.471-7.399-2.471-1.74 0-3.082.628-3.977 1.843V4.386c1.122-2.095 3.251-3.293 5.861-3.293 2.886 0 5.514 1.506 5.514 3.159v18.137z" fill="#8D8D8D"/></svg>