<svg width="24" height="24" viewBox="0 0 24 24" fill="none" xmlns="http://www.w3.org/2000/svg">
<path fill-rule="evenodd" clip-rule="evenodd" d="M0 2C0 0.89543 0.895431 0 2 0H22C23.1046 0 24 0.895431 24 2V22C24 23.1046 23.1046 24 22 24H2C0.89543 24 0 23.1046 0 22V2ZM1.09088 6.5814C1.09088 6.02911 1.5386 5.5814 2.09088 5.5814H21.9091C22.4613 5.5814 22.9091 6.02911 22.9091 6.5814V21.8837C22.9091 22.436 22.4613 22.8837 21.9091 22.8837H2.09088C1.5386 22.8837 1.09088 22.436 1.09088 21.8837V6.5814ZM20.7272 9.2093C20.7272 9.67168 20.3609 10.0465 19.9091 10.0465C19.4572 10.0465 19.0909 9.67168 19.0909 9.2093C19.0909 8.74692 19.4572 8.37209 19.9091 8.37209C20.3609 8.37209 20.7272 8.74692 20.7272 9.2093ZM12.2727 10.0465C12.7246 10.0465 13.0909 9.67168 13.0909 9.2093C13.0909 8.74692 12.7246 8.37209 12.2727 8.37209C11.8208 8.37209 11.4545 8.74692 11.4545 9.2093C11.4545 9.67168 11.8208 10.0465 12.2727 10.0465ZM13.0909 14.2326C13.0909 14.6949 12.7246 15.0698 12.2727 15.0698C11.8208 15.0698 11.4545 14.6949 11.4545 14.2326C11.4545 13.7702 11.8208 13.3953 12.2727 13.3953C12.7246 13.3953 13.0909 13.7702 13.0909 14.2326ZM8.45453 15.0698C8.9064 15.0698 9.27272 14.6949 9.27272 14.2326C9.27272 13.7702 8.9064 13.3953 8.45453 13.3953C8.00266 13.3953 7.63635 13.7702 7.63635 14.2326C7.63635 14.6949 8.00266 15.0698 8.45453 15.0698ZM5.45454 14.2326C5.45454 14.6949 5.08823 15.0698 4.63636 15.0698C4.18449 15.0698 3.81818 14.6949 3.81818 14.2326C3.81818 13.7702 4.18449 13.3953 4.63636 13.3953C5.08823 13.3953 5.45454 13.7702 5.45454 14.2326ZM19.9091 15.0698C20.3609 15.0698 20.7272 14.6949 20.7272 14.2326C20.7272 13.7702 20.3609 13.3953 19.9091 13.3953C19.4572 13.3953 19.0909 13.7702 19.0909 14.2326C19.0909 14.6949 19.4572 15.0698 19.9091 15.0698ZM16.9091 19.2558C16.9091 19.7182 16.5428 20.093 16.0909 20.093C15.639 20.093 15.2727 19.7182 15.2727 19.2558C15.2727 18.7934 15.639 18.4186 16.0909 18.4186C16.5428 18.4186 16.9091 18.7934 16.9091 19.2558ZM8.45453 20.093C8.9064 20.093 9.27272 19.7182 9.27272 19.2558C9.27272 18.7934 8.9064 18.4186 8.45453 18.4186C8.00266 18.4186 7.63635 18.7934 7.63635 19.2558C7.63635 19.7182 8.00266 20.093 8.45453 20.093ZM13.0909 19.2558C13.0909 19.7182 12.7246 20.093 12.2727 20.093C11.8208 20.093 11.4545 19.7182 11.4545 19.2558C11.4545 18.7934 11.8208 18.4186 12.2727 18.4186C12.7246 18.4186 13.0909 18.7934 13.0909 19.2558ZM4.63636 20.093C5.08823 20.093 5.45454 19.7182 5.45454 19.2558C5.45454 18.7934 5.08823 18.4186 4.63636 18.4186C4.18449 18.4186 3.81818 18.7934 3.81818 19.2558C3.81818 19.7182 4.18449 20.093 4.63636 20.093ZM18 14.2326C18 15.3114 17.1453 16.186 16.0909 16.186C15.0366 16.186 14.1818 15.3114 14.1818 14.2326C14.1818 13.1537 15.0366 12.2791 16.0909 12.2791C17.1453 12.2791 18 13.1537 18 14.2326ZM16.0909 10.0465C16.5428 10.0465 16.9091 9.67168 16.9091 9.2093C16.9091 8.74692 16.5428 8.37209 16.0909 8.37209C15.639 8.37209 15.2727 8.74692 15.2727 9.2093C15.2727 9.67168 15.639 10.0465 16.0909 10.0465ZM9.27272 9.2093C9.27272 9.67168 8.9064 10.0465 8.45453 10.0465C8.00266 10.0465 7.63635 9.67168 7.63635 9.2093C7.63635 8.74692 8.00266 8.37209 8.45453 8.37209C8.9064 8.37209 9.27272 8.74692 9.27272 9.2093Z" fill="#8C8C8C"/>
</svg>
