<svg width="18" height="21" viewBox="0 0 18 21" fill="none" xmlns="http://www.w3.org/2000/svg">
<path fill-rule="evenodd" clip-rule="evenodd" d="M3.1244e-06 0.587933C1.04162e-06 0.587934 0 0.587934 0 0.587934V0.587933H3.1244e-06ZM16.9091 0.595767C15.8749 1.05133 14.2701 1.63471 12.8339 1.63471C10.7002 1.63471 9.68561 1.24017 8.6544 0.839161C7.83263 0.519601 7.00031 0.195934 5.58265 0.0645481C2.38814 -0.231514 0.00315334 0.586852 3.1244e-06 0.587933H1.09091L0.367695 1.57345C0.40017 1.56229 0.481739 1.53689 0.608523 1.50177C0.753675 1.46156 0.91483 1.42103 1.09091 1.38141C1.18514 1.36021 1.28364 1.33927 1.38625 1.31878C2.62815 1.0708 4.018 0.971178 5.47777 1.10647C6.51696 1.20278 7.10136 1.36494 8.19329 1.78931L8.29011 1.82696C9.89797 2.45193 10.9162 2.68147 12.8339 2.68147C13.2114 2.68147 13.6032 2.64837 14.0082 2.58546C14.8823 2.44969 15.7937 2.18065 16.7147 1.81804C16.78 1.79231 16.8448 1.76634 16.9091 1.74014V10.7615C16.6997 10.8483 16.4605 10.9351 16.1912 11.0187C15.0686 11.3674 13.7012 11.579 12.0836 11.579C10.5152 11.579 9.36462 11.3615 7.74563 10.8605C7.68559 10.8419 7.53512 10.7947 7.37366 10.744L7.37337 10.7439L7.37148 10.7433C7.17467 10.6816 6.96207 10.6149 6.87727 10.5888C6.53555 10.4834 6.26042 10.404 5.99042 10.3347C5.2667 10.1489 4.62106 10.0501 3.9474 10.0414C2.80391 10.0266 1.85635 10.1643 1.09091 10.4339C0.673984 10.5807 0.311091 10.7667 0 10.9884V12.506L0.0438104 12.5108C0.0641463 12.4671 0.0930031 12.4126 0.133207 12.3508C0.0270078 12.5141 0 12.6258 0 12.6258V21H1.09091L1.09091 11.5721C1.67779 11.292 2.57288 11.0705 3.93271 11.0881C5.01187 11.1021 5.94689 11.3965 6.98703 11.724C8.3311 12.1473 9.85069 12.6258 12.0836 12.6258C16.0446 12.6258 18 11.4035 18 11.4035V1.25206C17.6611 1.41767 17.2951 1.5828 16.9091 1.74014V0.595767ZM17.4337 0.353888L18 0.666279V0.0645481C18 0.0645481 17.7888 0.182563 17.4337 0.353888ZM16.9091 10.7615C16.9962 10.7254 17.0781 10.6892 17.1549 10.6534C17.2975 10.5867 17.3807 10.5413 17.4045 10.5264L16.9091 11.4035V10.7615ZM1.09091 0.587933L1.09091 0.587929L1.09091 0.587933H1.09091Z" fill="#8C8C8C"/>
</svg>
