<svg width="22" height="19" viewBox="0 0 22 19" fill="none" xmlns="http://www.w3.org/2000/svg">
<path fill-rule="evenodd" clip-rule="evenodd" d="M8.32071 2.11111L7.31238 0H1.57143C0.703476 0 0 0.709333 0 1.58333V17.4167C0 18.2912 0.703476 19 1.57143 19H20.4286C21.2965 19 22 18.2907 22 17.4167V3.69497C22.0005 2.82044 21.2965 2.11111 20.4286 2.11111H8.32071ZM20.9524 17.4167C20.9524 17.7085 20.7114 17.945 20.4144 17.945H1.58557C1.28862 17.945 1.04761 17.7085 1.04761 17.4167V6.86111C1.04761 6.56925 1.28862 6.33333 1.58557 6.33333H20.4144C20.7114 6.33333 20.9524 6.56925 20.9524 6.86111V17.4167ZM20.9524 5.27831H1.04761V1.58386C1.04761 1.29253 1.28227 1.05609 1.57142 1.05609H6.80113L7.84561 3.1672H20.4286C20.7177 3.1672 20.9524 3.40364 20.9524 3.69498V4.22275V5.27831Z" fill="white"/>
</svg>
