<svg width="26" height="25" viewBox="0 0 26 25" fill="none" xmlns="http://www.w3.org/2000/svg">
<path fill-rule="evenodd" clip-rule="evenodd" d="M19.403 0C16.6693 0 14.3869 1.15287 13.0005 3.19188C11.6147 1.15287 9.33177 0 6.59802 0C3.41134 0 0 1.7082 0 4.25097V23.3626C0 23.5637 0.109204 23.7481 0.284971 23.8435C0.461258 23.9378 0.675507 23.9284 0.840354 23.818C0.882475 23.7898 5.08944 21.009 8.48206 21.009C10.6802 21.009 11.9839 22.1712 12.4696 24.5634C12.4727 24.5796 12.4826 24.5931 12.4873 24.6088C12.4961 24.6385 12.507 24.6661 12.5205 24.6937C12.5361 24.7249 12.5533 24.7531 12.5741 24.7802C12.5913 24.8031 12.6095 24.8244 12.6303 24.8442C12.6552 24.8687 12.6823 24.889 12.7119 24.9078C12.7353 24.9229 12.7582 24.938 12.7847 24.9489C12.8185 24.9641 12.8534 24.9724 12.8903 24.9807C12.9095 24.9849 12.9262 24.9953 12.9464 24.9974C12.9641 24.999 12.9818 25 13 25H13.0005H13.001H13.0016C13.0192 25 13.0369 24.9984 13.0551 24.9974C13.0749 24.9953 13.0915 24.9854 13.1108 24.9807C13.1472 24.9724 13.1825 24.9646 13.2163 24.9489C13.2423 24.9375 13.2652 24.9229 13.2891 24.9078C13.3188 24.889 13.3458 24.8687 13.3708 24.8442C13.3916 24.8244 13.4093 24.8031 13.4264 24.7802C13.4472 24.7531 13.4644 24.7249 13.4795 24.6937C13.493 24.6661 13.5039 24.6385 13.5127 24.6088C13.5174 24.5931 13.5273 24.5796 13.5304 24.5634C14.0161 22.1712 15.3203 21.009 17.5179 21.009C20.9111 21.009 25.1175 23.7893 25.1596 23.818C25.325 23.9279 25.5387 23.9378 25.715 23.8435C25.8908 23.7481 26 23.5637 26 23.3626V4.25097C26.001 1.7082 22.5902 0 19.403 0ZM8.4826 19.9176C5.69112 19.9176 2.55436 21.5315 1.08374 22.389V4.25097C1.08374 2.59799 3.71245 1.09243 6.59856 1.09243C9.20906 1.09243 11.3375 2.29063 12.4592 4.3859V21.7612C11.5648 20.5464 10.2231 19.9176 8.4826 19.9176ZM24.9178 22.389C23.4472 21.5315 20.3104 19.9176 17.519 19.9176C15.7784 19.9176 14.4368 20.5464 13.5424 21.7613V4.38644C14.664 2.29117 16.793 1.09297 19.403 1.09297C22.2891 1.09297 24.9173 2.59853 24.9173 4.25151V22.389H24.9178Z" fill="#8D8D8D"/>
</svg>
