<svg width="22" height="23" viewBox="0 0 22 23" fill="none" xmlns="http://www.w3.org/2000/svg">
<path fill-rule="evenodd" clip-rule="evenodd" d="M16.0377 14.993C17.2969 13.4115 18.0514 11.3955 18.0514 9.2C18.0514 4.11898 14.0104 0 9.02569 0C4.04094 0 0 4.11898 0 9.2C0 14.281 4.04094 18.4 9.02569 18.4C11.0432 18.4 12.9062 17.7252 14.4092 16.585L20.0537 22.642C20.4829 23.1025 21.197 23.1212 21.6487 22.6838C22.1005 22.2463 22.1188 21.5184 21.6897 21.058L16.0377 14.993ZM9.02556 16.1C5.28699 16.1 2.25629 13.0107 2.25629 9.19997C2.25629 5.38921 5.28699 2.29997 9.02556 2.29997C12.7641 2.29997 15.7948 5.38921 15.7948 9.19997C15.7948 13.0107 12.7641 16.1 9.02556 16.1Z" fill="white"/>
</svg>
